<svg width="160" height="161" viewBox="0 0 160 161" fill="none" xmlns="http://www.w3.org/2000/svg">
<path d="M70.1663 110.833L117.333 63.6666L109.666 56.1666L70.1663 95.6666L50.1663 75.6666L42.6663 83.1666L70.1663 110.833ZM79.9997 147.167C70.8886 147.167 62.2775 145.417 54.1663 141.917C46.0552 138.417 38.9719 133.639 32.9163 127.583C26.8608 121.528 22.083 114.444 18.583 106.333C15.083 98.2222 13.333 89.611 13.333 80.4999C13.333 71.2777 15.083 62.611 18.583 54.4999C22.083 46.3888 26.8608 39.3333 32.9163 33.3333C38.9719 27.3333 46.0552 22.5833 54.1663 19.0833C62.2775 15.5833 70.8886 13.8333 79.9997 13.8333C89.2219 13.8333 97.8886 15.5833 106 19.0833C114.111 22.5833 121.166 27.3333 127.166 33.3333C133.166 39.3333 137.916 46.3888 141.416 54.4999C144.916 62.611 146.666 71.2777 146.666 80.4999C146.666 89.611 144.916 98.2222 141.416 106.333C137.916 114.444 133.166 121.528 127.166 127.583C121.166 133.639 114.111 138.417 106 141.917C97.8886 145.417 89.2219 147.167 79.9997 147.167ZM79.9997 137.167C95.7775 137.167 109.166 131.639 120.166 120.583C131.166 109.528 136.666 96.1666 136.666 80.4999C136.666 64.7221 131.166 51.3333 120.166 40.3333C109.166 29.3333 95.7775 23.8333 79.9997 23.8333C64.333 23.8333 50.9719 29.3333 39.9163 40.3333C28.8608 51.3333 23.333 64.7221 23.333 80.4999C23.333 96.1666 28.8608 109.528 39.9163 120.583C50.9719 131.639 64.333 137.167 79.9997 137.167Z" fill="#0158DE"/>
</svg>
