<svg width="124" height="41" viewBox="0 0 124 41" fill="none" xmlns="http://www.w3.org/2000/svg">
<path d="M35.4922 0.40625V26.4375C35.4922 29.1901 34.8359 31.6419 33.5234 33.793C32.2292 35.944 30.388 37.6302 28 38.8516C25.6302 40.0547 22.8958 40.6562 19.7969 40.6562C16.6615 40.6562 13.8997 40.0547 11.5117 38.8516C9.1237 37.6484 7.28255 35.9714 5.98828 33.8203C4.69401 31.651 4.04688 29.1901 4.04688 26.4375V0.40625H10.0625V25.9453C10.0625 27.7318 10.4544 29.3268 11.2383 30.7305C12.0404 32.1159 13.1706 33.2096 14.6289 34.0117C16.1055 34.7956 17.8281 35.1875 19.7969 35.1875C21.7474 35.1875 23.4518 34.7956 24.9102 34.0117C26.3685 33.2096 27.4896 32.1159 28.2734 30.7305C29.0755 29.3268 29.4766 27.7318 29.4766 25.9453V0.40625H35.4922ZM40.7859 0.40625H54.8953C57.8667 0.40625 60.3823 0.96224 62.4422 2.07422C64.5021 3.16797 66.0424 4.68099 67.0633 6.61328C68.1023 8.54557 68.6219 10.7604 68.6219 13.2578C68.6219 15.737 68.1023 17.9427 67.0633 19.875C66.0424 21.8073 64.5021 23.3294 62.4422 24.4414C60.3823 25.5534 57.8667 26.1094 54.8953 26.1094H46.8016V40H40.7859V0.40625ZM54.2938 20.9688C57.0828 20.9688 59.1518 20.276 60.5008 18.8906C61.868 17.487 62.5516 15.6094 62.5516 13.2578C62.5516 10.888 61.8771 9.01042 60.5281 7.625C59.1792 6.23958 57.101 5.54688 54.2938 5.54688H46.8016V20.9688H54.2938ZM78.4547 28.5703H73.0406L72.5484 0.40625H78.9469L78.4547 28.5703ZM75.775 40.3828C75.0823 40.3828 74.426 40.2096 73.8063 39.8633C73.2047 39.5169 72.7307 39.043 72.3844 38.4414C72.038 37.8398 71.874 37.1927 71.8922 36.5C71.874 35.8073 72.038 35.1602 72.3844 34.5586C72.7307 33.957 73.2047 33.4831 73.8063 33.1367C74.426 32.7904 75.0823 32.6172 75.775 32.6172C76.4495 32.6172 77.0875 32.7904 77.6891 33.1367C78.2906 33.4831 78.7646 33.957 79.1109 34.5586C79.4755 35.1602 79.6578 35.8073 79.6578 36.5C79.6578 37.1927 79.4755 37.8398 79.1109 38.4414C78.7646 39.043 78.2906 39.5169 77.6891 39.8633C77.0875 40.2096 76.4495 40.3828 75.775 40.3828Z" fill="#404040"/>
<path d="M85 40C84.4477 40 84 39.5523 84 39V1C84 0.447716 84.4477 0 85 0H96.333C96.8853 0 97.333 0.447716 97.333 1V15.1131C97.333 16.004 98.4102 16.4502 99.0401 15.8202L113.865 0.995193C114.256 0.604668 114.889 0.604668 115.279 0.995193L123.293 9.00871C123.683 9.39924 123.683 10.0324 123.293 10.4229L108.756 24.9599C108.126 25.5899 108.572 26.667 109.463 26.667H123C123.552 26.667 124 27.1147 124 27.667V39C124 39.5523 123.552 40 123 40H85Z" fill="#0158DE"/>
</svg>
