<svg width="24" height="25" viewBox="0 0 24 25" fill="none" xmlns="http://www.w3.org/2000/svg">
<path d="M4.26 19.25C5.52 18.37 6.77 17.695 8.01 17.225C9.25 16.755 10.58 16.52 12 16.52C13.42 16.52 14.755 16.755 16.005 17.225C17.255 17.695 18.51 18.37 19.77 19.25C20.65 18.17 21.275 17.08 21.645 15.98C22.015 14.88 22.2 13.72 22.2 12.5C22.2 9.6 21.225 7.175 19.275 5.225C17.325 3.275 14.9 2.3 12 2.3C9.1 2.3 6.675 3.275 4.725 5.225C2.775 7.175 1.8 9.6 1.8 12.5C1.8 13.72 1.99 14.88 2.37 15.98C2.75 17.08 3.38 18.17 4.26 19.25ZM11.9943 13.4C10.8381 13.4 9.865 13.0031 9.075 12.2093C8.285 11.4157 7.89 10.4407 7.89 9.2843C7.89 8.1281 8.2869 7.155 9.0807 6.365C9.8743 5.575 10.8493 5.18 12.0057 5.18C13.1619 5.18 14.135 5.5769 14.925 6.3707C15.715 7.1643 16.11 8.1393 16.11 9.2957C16.11 10.4519 15.7131 11.425 14.9193 12.215C14.1257 13.005 13.1507 13.4 11.9943 13.4ZM12.0141 24.5C10.3647 24.5 8.81 24.185 7.35 23.555C5.89 22.925 4.615 22.065 3.525 20.975C2.435 19.885 1.575 18.6123 0.945 17.1569C0.315 15.7017 0 14.1467 0 12.4919C0 10.8373 0.315 9.285 0.945 7.835C1.575 6.385 2.435 5.115 3.525 4.025C4.615 2.935 5.8877 2.075 7.3431 1.445C8.7983 0.815 10.3533 0.5 12.0081 0.5C13.6627 0.5 15.215 0.815 16.665 1.445C18.115 2.075 19.385 2.935 20.475 4.025C21.565 5.115 22.425 6.3853 23.055 7.8359C23.685 9.2865 24 10.8365 24 12.4859C24 14.1353 23.685 15.69 23.055 17.15C22.425 18.61 21.565 19.885 20.475 20.975C19.385 22.065 18.1147 22.925 16.6641 23.555C15.2135 24.185 13.6635 24.5 12.0141 24.5ZM12 22.7C13.1 22.7 14.175 22.54 15.225 22.22C16.275 21.9 17.31 21.34 18.33 20.54C17.31 19.82 16.27 19.27 15.21 18.89C14.15 18.51 13.08 18.32 12 18.32C10.92 18.32 9.85 18.51 8.79 18.89C7.73 19.27 6.69 19.82 5.67 20.54C6.69 21.34 7.725 21.9 8.775 22.22C9.825 22.54 10.9 22.7 12 22.7ZM12 11.6C12.68 11.6 13.235 11.385 13.665 10.955C14.095 10.525 14.31 9.97 14.31 9.29C14.31 8.61 14.095 8.055 13.665 7.625C13.235 7.195 12.68 6.98 12 6.98C11.32 6.98 10.765 7.195 10.335 7.625C9.905 8.055 9.69 8.61 9.69 9.29C9.69 9.97 9.905 10.525 10.335 10.955C10.765 11.385 11.32 11.6 12 11.6Z" fill="#A6A6A6"/>
</svg>
