<svg width="124" height="42" viewBox="0 0 124 42" fill="none" xmlns="http://www.w3.org/2000/svg">
<path d="M29.4766 0.950317H35.4922V26.9816C35.4922 35.2941 29.2578 41.2003 19.7969 41.2003C10.2266 41.2003 4.04688 35.2941 4.04688 26.9816V0.950317H10.0625V26.4894C10.0625 31.8488 13.7812 35.7316 19.7969 35.7316C25.7578 35.7316 29.4766 31.8488 29.4766 26.4894V0.950317ZM40.7859 40.5441V0.950317H54.8953C64.0828 0.950317 68.6219 6.47375 68.6219 13.8019C68.6219 21.0753 64.0828 26.6534 54.8953 26.6534H46.8016V40.5441H40.7859ZM46.8016 21.5128H54.2938C60.1453 21.5128 62.5516 18.2316 62.5516 13.8019C62.5516 9.3175 60.1453 6.09094 54.2938 6.09094H46.8016V21.5128ZM78.9469 0.950317L78.4547 29.1144H73.0406L72.5484 0.950317H78.9469ZM75.775 40.9269C73.6422 40.9269 71.8375 39.1769 71.8922 37.0441C71.8375 34.9113 73.6422 33.1613 75.775 33.1613C77.8531 33.1613 79.6578 34.9113 79.6578 37.0441C79.6578 39.1769 77.8531 40.9269 75.775 40.9269Z" fill="#FAFAFA"/>
<path d="M95.2648 40.5441C95.2365 40.5159 95.1983 40.5 95.1584 40.5H85C84.4477 40.5 84 40.0523 84 39.5V1.50004C84 0.947754 84.4477 0.500038 85 0.500038H98.8301C99.3824 0.500038 99.8301 0.947754 99.8301 1.50004V11.5321C99.8301 12.423 100.907 12.8692 101.537 12.2392L111.826 1.95028C112.217 1.55976 112.85 1.55975 113.24 1.95024L122.949 11.6582C123.34 12.0487 123.34 12.6819 122.949 13.0724L114.06 21.9619C113.43 22.5918 113.876 23.669 114.767 23.669H123C123.552 23.669 124 24.1167 124 24.669V39.4991C124 40.0513 123.552 40.4991 123 40.4991H99.8306C99.8303 40.4991 99.8301 40.4993 99.8301 40.4995C99.8301 40.4998 99.8299 40.5 99.8296 40.5H95.5838C95.5439 40.5 95.5056 40.5159 95.4774 40.5441C95.4187 40.6028 95.3235 40.6028 95.2648 40.5441Z" fill="#0158DE"/>
</svg>
